<svg width="199" height="29" viewBox="0 0 199 29" fill="none" xmlns="http://www.w3.org/2000/svg">
<path d="M12.9258 20.9277H6.34961L5.0127 28.335H4.00098L5.33789 20.9277H0.441895V19.9883H5.51855L7.23486 10.5215H1.81494V9.5459H7.41553L8.77051 2.03027H9.78223L8.40918 9.5459H15.0034L16.3765 2.03027H17.3882L16.0151 9.5459H20.604V10.5215H15.8345L14.1001 19.9883H19.249V20.9277H13.9375L12.5825 28.335H11.5708L12.9258 20.9277ZM6.53027 19.9883H13.0884L14.8228 10.5215H8.22852L6.53027 19.9883ZM24.7954 2.03027L35.6172 26.9077L46.4751 2.03027H47.9023V28.335H46.9268V3.47559L36.0146 28.335H35.2378L24.3799 3.60205V28.335H23.4043V2.03027H24.7954ZM61.6509 28.6963C60.0731 28.6963 58.6217 28.2747 57.2969 27.4316C55.984 26.5765 54.9543 25.4082 54.2075 23.9268C53.4608 22.4453 53.0874 20.8013 53.0874 18.9946V18.1816C53.0874 16.375 53.4487 14.7189 54.1714 13.2134C54.894 11.7078 55.8877 10.5335 57.1523 9.69043C58.417 8.84733 59.7961 8.42578 61.2896 8.42578C63.4696 8.42578 65.2521 9.20264 66.6372 10.7563C68.0223 12.3101 68.7148 14.3516 68.7148 16.8809V17.9106H54.063V18.9766C54.063 20.5664 54.3942 22.0418 55.0566 23.4028C55.7311 24.7518 56.6525 25.8117 57.8208 26.5825C59.0011 27.3534 60.2778 27.7388 61.6509 27.7388C62.9637 27.7388 64.0778 27.522 64.9932 27.0884C65.9206 26.6427 66.7396 25.9622 67.4502 25.0469L68.1367 25.5347C66.6794 27.6424 64.5174 28.6963 61.6509 28.6963ZM61.2896 9.40137C59.3866 9.40137 57.7726 10.112 56.4478 11.5332C55.1229 12.9424 54.346 14.743 54.1172 16.9351H67.7393V16.7002C67.7393 15.3753 67.4562 14.1468 66.8901 13.0146C66.3361 11.8704 65.5653 10.9852 64.5776 10.3589C63.6021 9.72054 62.506 9.40137 61.2896 9.40137ZM75.4536 3.51172V8.78711H79.8979V9.78076H75.4536V23.6558C75.4536 25.0409 75.6764 26.0646 76.1221 26.7271C76.5798 27.3895 77.3385 27.7207 78.3984 27.7207C78.9284 27.7207 79.5728 27.6665 80.3315 27.5581L80.4941 28.4795C80.0967 28.624 79.4162 28.6963 78.4526 28.6963C77.0314 28.6963 76.0137 28.3049 75.3994 27.522C74.7852 26.7271 74.472 25.4805 74.46 23.7822V9.78076H70.8467V8.78711H74.46V3.51172H75.4536ZM97.603 28.335C97.3621 27.5039 97.2417 26.3115 97.2417 24.7578C96.4709 26.0104 95.417 26.98 94.0801 27.6665C92.7432 28.353 91.2316 28.6963 89.5454 28.6963C87.7388 28.6963 86.2814 28.2085 85.1733 27.2329C84.0773 26.2453 83.5293 24.9626 83.5293 23.3848C83.5293 21.5902 84.3363 20.1569 85.9502 19.085C87.5762 18.001 89.7321 17.4469 92.418 17.4229H97.2417V14.5684C97.2417 12.9303 96.7238 11.6597 95.688 10.7563C94.6642 9.85303 93.1948 9.40137 91.2798 9.40137C89.4972 9.40137 88.0098 9.85905 86.8174 10.7744C85.625 11.6898 85.0288 12.8219 85.0288 14.1709L84.0532 14.1348C84.0532 12.5449 84.7518 11.196 86.1489 10.0879C87.5461 8.97982 89.2563 8.42578 91.2798 8.42578C93.3875 8.42578 95.0617 8.95573 96.3022 10.0156C97.5428 11.0635 98.1812 12.5449 98.2173 14.46V23.8003C98.2173 25.9442 98.3859 27.4015 98.7231 28.1724V28.335H97.603ZM89.5454 27.7388C91.3761 27.7388 92.9479 27.3293 94.2607 26.5103C95.5856 25.6912 96.5793 24.541 97.2417 23.0596V18.4165H92.7251C89.9308 18.4165 87.793 18.9705 86.3115 20.0786C85.1071 20.9819 84.5049 22.1081 84.5049 23.457C84.5049 24.6494 84.9806 25.6611 85.9321 26.4922C86.8836 27.3232 88.0881 27.7388 89.5454 27.7388Z" fill="#99CEFF"/>
<path d="M110.25 26.709L111.442 22.373L117.657 2.03027H118.741L124.919 22.373L126.094 26.709L127.322 22.373L132.742 2.03027H133.808L126.726 28.335H125.624L119.102 6.40234L118.181 3.62012L117.295 6.40234L110.719 28.335H109.617L102.517 2.03027H103.601L109.057 22.373L110.25 26.709ZM150.068 28.335C149.827 27.5039 149.707 26.3115 149.707 24.7578C148.936 26.0104 147.882 26.98 146.545 27.6665C145.208 28.353 143.696 28.6963 142.01 28.6963C140.204 28.6963 138.746 28.2085 137.638 27.2329C136.542 26.2453 135.994 24.9626 135.994 23.3848C135.994 21.5902 136.801 20.1569 138.415 19.085C140.041 18.001 142.197 17.4469 144.883 17.4229H149.707V14.5684C149.707 12.9303 149.189 11.6597 148.153 10.7563C147.129 9.85303 145.66 9.40137 143.745 9.40137C141.962 9.40137 140.475 9.85905 139.282 10.7744C138.09 11.6898 137.494 12.8219 137.494 14.1709L136.518 14.1348C136.518 12.5449 137.217 11.196 138.614 10.0879C140.011 8.97982 141.721 8.42578 143.745 8.42578C145.852 8.42578 147.527 8.95573 148.767 10.0156C150.008 11.0635 150.646 12.5449 150.682 14.46V23.8003C150.682 25.9442 150.851 27.4015 151.188 28.1724V28.335H150.068ZM142.01 27.7388C143.841 27.7388 145.413 27.3293 146.726 26.5103C148.05 25.6912 149.044 24.541 149.707 23.0596V18.4165H145.19C142.396 18.4165 140.258 18.9705 138.776 20.0786C137.572 20.9819 136.97 22.1081 136.97 23.457C136.97 24.6494 137.445 25.6611 138.397 26.4922C139.348 27.3232 140.553 27.7388 142.01 27.7388ZM158.198 28.335H157.222V0.584961H158.198V28.335ZM165.822 28.335H164.846V0.584961H165.822V28.335ZM179.263 28.6963C177.685 28.6963 176.234 28.2747 174.909 27.4316C173.596 26.5765 172.567 25.4082 171.82 23.9268C171.073 22.4453 170.7 20.8013 170.7 18.9946V18.1816C170.7 16.375 171.061 14.7189 171.784 13.2134C172.506 11.7078 173.5 10.5335 174.765 9.69043C176.029 8.84733 177.408 8.42578 178.902 8.42578C181.082 8.42578 182.864 9.20264 184.25 10.7563C185.635 12.3101 186.327 14.3516 186.327 16.8809V17.9106H171.675V18.9766C171.675 20.5664 172.007 22.0418 172.669 23.4028C173.343 24.7518 174.265 25.8117 175.433 26.5825C176.613 27.3534 177.89 27.7388 179.263 27.7388C180.576 27.7388 181.69 27.522 182.605 27.0884C183.533 26.6427 184.352 25.9622 185.062 25.0469L185.749 25.5347C184.292 27.6424 182.13 28.6963 179.263 28.6963ZM178.902 9.40137C176.999 9.40137 175.385 10.112 174.06 11.5332C172.735 12.9424 171.958 14.743 171.729 16.9351H185.352V16.7002C185.352 15.3753 185.069 14.1468 184.502 13.0146C183.948 11.8704 183.178 10.9852 182.19 10.3589C181.214 9.72054 180.118 9.40137 178.902 9.40137ZM193.066 3.51172V8.78711H197.51V9.78076H193.066V23.6558C193.066 25.0409 193.289 26.0646 193.734 26.7271C194.192 27.3895 194.951 27.7207 196.011 27.7207C196.541 27.7207 197.185 27.6665 197.944 27.5581L198.106 28.4795C197.709 28.624 197.028 28.6963 196.065 28.6963C194.644 28.6963 193.626 28.3049 193.012 27.522C192.397 26.7271 192.084 25.4805 192.072 23.7822V9.78076H188.459V8.78711H192.072V3.51172H193.066Z" fill="white"/>
</svg>
